<svg width="200" height="200" viewBox="0 0 200 200" fill="none" xmlns="http://www.w3.org/2000/svg">
<rect width="200" height="200" rx="100" fill="#859C77"/>
<path d="M90.3786 125.47C90.3786 126.957 90.7355 127.938 91.4493 128.414C92.1929 128.89 93.7097 129.128 95.9998 129.128C103.138 129.128 109.012 127.715 113.622 124.89C120.7 120.548 124.239 113.127 124.239 102.628C124.239 93.2599 121.325 86.2112 115.495 81.4823C110.499 77.4374 103.881 75.415 95.6429 75.415C93.5907 75.415 92.1929 75.6381 91.4493 76.0842C90.7355 76.5303 90.3786 77.5118 90.3786 79.0286V125.47ZM73.0691 130.868C76.4001 130.511 78.5713 129.916 79.5825 129.083C80.5937 128.221 81.0993 126.065 81.0993 122.615V81.973C81.0993 78.642 80.6086 76.5006 79.6271 75.5488C78.6456 74.5971 76.4596 74.0023 73.0691 73.7644V72.0691H97.695C105.993 72.0691 113.012 73.4372 118.752 76.1734C129.102 81.0808 134.277 89.8545 134.277 102.495C134.277 107.045 133.34 111.372 131.466 115.477C129.623 119.581 126.827 123.046 123.079 125.871C120.7 127.656 118.232 129.009 115.674 129.931C111.004 131.656 105.264 132.519 98.4534 132.519H73.0691V130.868Z" fill="#947061"/>
<path d="M156.39 102.524L157.951 121.618H156.39C154.814 116.86 152.776 113.276 150.278 110.867C146.679 107.387 142.054 105.647 136.404 105.647C128.701 105.647 122.841 108.696 118.826 114.793C115.466 119.938 113.785 126.065 113.785 133.173C113.785 138.943 114.9 144.207 117.131 148.966C119.362 153.724 122.276 157.219 125.875 159.45C129.504 161.65 133.221 162.751 137.028 162.751C139.259 162.751 141.415 162.468 143.497 161.903C145.579 161.338 147.586 160.505 149.52 159.405V141.917C149.52 138.883 149.282 136.905 148.806 135.984C148.36 135.032 147.646 134.318 146.664 133.842C145.713 133.337 144.017 133.084 141.579 133.084V131.388H165V133.084H163.885C161.565 133.084 159.974 133.857 159.111 135.404C158.516 136.504 158.219 138.675 158.219 141.917V160.431C154.799 162.275 151.423 163.628 148.092 164.491C144.761 165.353 141.058 165.784 136.984 165.784C125.295 165.784 116.417 162.037 110.35 154.542C105.8 148.921 103.524 142.437 103.524 135.091C103.524 129.768 104.803 124.667 107.361 119.789C110.395 113.99 114.558 109.528 119.852 106.406C124.284 103.818 129.518 102.524 135.556 102.524C137.757 102.524 139.749 102.703 141.534 103.06C143.348 103.417 145.906 104.205 149.207 105.424C150.873 106.049 151.988 106.361 152.553 106.361C153.118 106.361 153.594 106.108 153.981 105.603C154.397 105.067 154.65 104.041 154.739 102.524H156.39Z" fill="#947061"/>
<path d="M70.1004 94.9105L47.224 43.6576V84.3545C47.224 88.0978 47.6169 90.4336 48.4028 91.3619C49.4796 92.6197 51.1823 93.2485 53.5107 93.2485H55.6062V94.9105H35V93.2485H37.0955C39.5986 93.2485 41.374 92.4699 42.4217 90.9127C43.062 89.9544 43.3822 87.7684 43.3822 84.3545V44.556C43.3822 41.8609 43.0911 39.9144 42.509 38.7165C42.1016 37.8481 41.3448 37.1294 40.2389 36.5604C39.162 35.9615 37.4157 35.662 35 35.662V34H51.7644L73.2437 81.6594L94.3738 34H111.138V35.662H109.086C106.554 35.662 104.764 36.4406 103.716 37.9978C103.076 38.9561 102.756 41.1422 102.756 44.556V84.3545C102.756 88.0978 103.163 90.4336 103.978 91.3619C105.055 92.6197 106.758 93.2485 109.086 93.2485H111.138V94.9105H85.9916V93.2485H88.0872C90.6193 93.2485 92.3947 92.4699 93.4134 90.9127C94.0537 89.9544 94.3738 87.7684 94.3738 84.3545V43.6576L71.5411 94.9105H70.1004Z" fill="#947061"/>
<path d="M5.71875 180.293L7.875 175.055H11.1094V175.271H10.8516C10.6172 175.271 10.4297 175.312 10.2891 175.395C10.1914 175.449 10.1133 175.541 10.0547 175.67C10.0117 175.764 9.99023 176.008 9.99023 176.402V181.641C9.99023 182.047 10.0117 182.301 10.0547 182.402C10.0977 182.504 10.1855 182.594 10.3184 182.672C10.4512 182.746 10.6289 182.783 10.8516 182.783H11.1094V183H6.96094V182.783H7.21875C7.45312 182.783 7.64062 182.742 7.78125 182.66C7.87891 182.605 7.95703 182.512 8.01562 182.379C8.05859 182.285 8.08008 182.039 8.08008 181.641V175.752L5.0332 183H4.89258L1.79883 175.805V181.4C1.79883 181.791 1.80859 182.031 1.82812 182.121C1.87891 182.316 1.98828 182.477 2.15625 182.602C2.32812 182.723 2.5957 182.783 2.95898 182.783V183H0.240234V182.783H0.322266C0.498047 182.787 0.662109 182.76 0.814453 182.701C0.966797 182.639 1.08203 182.557 1.16016 182.455C1.23828 182.354 1.29883 182.211 1.3418 182.027C1.34961 181.984 1.35352 181.785 1.35352 181.43V176.402C1.35352 176 1.33203 175.75 1.28906 175.652C1.24609 175.551 1.1582 175.463 1.02539 175.389C0.892578 175.311 0.714844 175.271 0.492188 175.271H0.240234V175.055H3.48633L5.71875 180.293ZM14.7598 182.191C14.0918 182.781 13.4922 183.076 12.9609 183.076C12.6484 183.076 12.3887 182.975 12.1816 182.771C11.9746 182.564 11.8711 182.307 11.8711 181.998C11.8711 181.58 12.0508 181.205 12.4102 180.873C12.7695 180.537 13.5527 180.092 14.7598 179.537V178.986C14.7598 178.572 14.7363 178.312 14.6895 178.207C14.6465 178.098 14.5625 178.004 14.4375 177.926C14.3125 177.844 14.1719 177.803 14.0156 177.803C13.7617 177.803 13.5527 177.859 13.3887 177.973C13.2871 178.043 13.2363 178.125 13.2363 178.219C13.2363 178.301 13.291 178.402 13.4004 178.523C13.5488 178.691 13.623 178.854 13.623 179.01C13.623 179.201 13.5508 179.365 13.4062 179.502C13.2656 179.635 13.0801 179.701 12.8496 179.701C12.6035 179.701 12.3965 179.627 12.2285 179.479C12.0645 179.33 11.9824 179.156 11.9824 178.957C11.9824 178.676 12.0938 178.408 12.3164 178.154C12.5391 177.896 12.8496 177.699 13.248 177.562C13.6465 177.426 14.0605 177.357 14.4902 177.357C15.0098 177.357 15.4199 177.469 15.7207 177.691C16.0254 177.91 16.2227 178.148 16.3125 178.406C16.3672 178.57 16.3945 178.947 16.3945 179.537V181.664C16.3945 181.914 16.4043 182.072 16.4238 182.139C16.4434 182.201 16.4727 182.248 16.5117 182.279C16.5508 182.311 16.5957 182.326 16.6465 182.326C16.748 182.326 16.8516 182.254 16.957 182.109L17.1328 182.25C16.9375 182.539 16.7344 182.75 16.5234 182.883C16.3164 183.012 16.0801 183.076 15.8145 183.076C15.502 183.076 15.2578 183.004 15.082 182.859C14.9062 182.711 14.7988 182.488 14.7598 182.191ZM14.7598 181.764V179.93C14.2871 180.207 13.9355 180.504 13.7051 180.82C13.5527 181.031 13.4766 181.244 13.4766 181.459C13.4766 181.639 13.541 181.797 13.6699 181.934C13.7676 182.039 13.9043 182.092 14.0801 182.092C14.2754 182.092 14.502 181.982 14.7598 181.764ZM23.0625 175.055V181.359C23.0625 181.785 23.0742 182.037 23.0977 182.115C23.1289 182.244 23.1875 182.34 23.2734 182.402C23.3633 182.465 23.5176 182.504 23.7363 182.52V182.713L21.4219 183.164V182.297C21.1445 182.633 20.8965 182.861 20.6777 182.982C20.4629 183.104 20.2188 183.164 19.9453 183.164C19.2461 183.164 18.6934 182.852 18.2871 182.227C17.959 181.719 17.7949 181.096 17.7949 180.357C17.7949 179.768 17.8965 179.24 18.0996 178.775C18.3027 178.307 18.5801 177.953 18.9316 177.715C19.2871 177.477 19.668 177.357 20.0742 177.357C20.3359 177.357 20.5684 177.408 20.7715 177.51C20.9746 177.611 21.1914 177.789 21.4219 178.043V176.391C21.4219 175.973 21.4043 175.721 21.3691 175.635C21.3223 175.521 21.252 175.438 21.1582 175.383C21.0645 175.328 20.8887 175.301 20.6309 175.301V175.055H23.0625ZM21.4219 178.77C21.1328 178.215 20.7793 177.938 20.3613 177.938C20.2168 177.938 20.0977 177.977 20.0039 178.055C19.8594 178.176 19.7402 178.389 19.6465 178.693C19.5566 178.998 19.5117 179.465 19.5117 180.094C19.5117 180.785 19.5625 181.297 19.6641 181.629C19.7656 181.961 19.9043 182.201 20.0801 182.35C20.1699 182.424 20.293 182.461 20.4492 182.461C20.793 182.461 21.1172 182.191 21.4219 181.652V178.77ZM25.7344 174.867C25.9883 174.867 26.2031 174.957 26.3789 175.137C26.5547 175.312 26.6426 175.525 26.6426 175.775C26.6426 176.025 26.5527 176.238 26.373 176.414C26.1973 176.59 25.9844 176.678 25.7344 176.678C25.4844 176.678 25.2715 176.59 25.0957 176.414C24.9199 176.238 24.832 176.025 24.832 175.775C24.832 175.525 24.9199 175.312 25.0957 175.137C25.2715 174.957 25.4844 174.867 25.7344 174.867ZM26.5547 177.521V181.863C26.5547 182.25 26.5996 182.498 26.6895 182.607C26.7793 182.713 26.9551 182.773 27.2168 182.789V183H24.2578V182.789C24.5 182.781 24.6797 182.711 24.7969 182.578C24.875 182.488 24.9141 182.25 24.9141 181.863V178.664C24.9141 178.277 24.8691 178.031 24.7793 177.926C24.6895 177.816 24.5156 177.754 24.2578 177.738V177.521H26.5547ZM31.2188 177.369L31.3066 179.238H31.1074C30.8691 178.684 30.6211 178.305 30.3633 178.102C30.1094 177.898 29.8555 177.797 29.6016 177.797C29.4414 177.797 29.3047 177.852 29.1914 177.961C29.0781 178.066 29.0215 178.189 29.0215 178.33C29.0215 178.436 29.0605 178.537 29.1387 178.635C29.2637 178.795 29.6133 179.07 30.1875 179.461C30.7617 179.848 31.1387 180.178 31.3184 180.451C31.502 180.721 31.5938 181.023 31.5938 181.359C31.5938 181.664 31.5176 181.963 31.3652 182.256C31.2129 182.549 30.998 182.773 30.7207 182.93C30.4434 183.086 30.1367 183.164 29.8008 183.164C29.5391 183.164 29.1895 183.082 28.752 182.918C28.6348 182.875 28.5547 182.854 28.5117 182.854C28.3828 182.854 28.2754 182.951 28.1895 183.146H27.9961L27.9023 181.178H28.1016C28.2773 181.693 28.5176 182.08 28.8223 182.338C29.1309 182.596 29.4219 182.725 29.6953 182.725C29.8828 182.725 30.0352 182.668 30.1523 182.555C30.2734 182.438 30.334 182.297 30.334 182.133C30.334 181.945 30.2754 181.783 30.1582 181.646C30.041 181.51 29.7793 181.303 29.373 181.025C28.7754 180.611 28.3887 180.295 28.2129 180.076C27.9551 179.756 27.8262 179.402 27.8262 179.016C27.8262 178.594 27.9707 178.213 28.2598 177.873C28.5527 177.529 28.9746 177.357 29.5254 177.357C29.8223 177.357 30.1094 177.43 30.3867 177.574C30.4922 177.633 30.5781 177.662 30.6445 177.662C30.7148 177.662 30.7715 177.648 30.8145 177.621C30.8574 177.59 30.9258 177.506 31.0195 177.369H31.2188ZM35.0156 177.357C35.4922 177.357 35.9355 177.48 36.3457 177.727C36.7559 177.973 37.0664 178.322 37.2773 178.775C37.4922 179.229 37.5996 179.725 37.5996 180.264C37.5996 181.041 37.4023 181.691 37.0078 182.215C36.5312 182.848 35.873 183.164 35.0332 183.164C34.209 183.164 33.5742 182.875 33.1289 182.297C32.6836 181.719 32.4609 181.049 32.4609 180.287C32.4609 179.502 32.6875 178.818 33.1406 178.236C33.5977 177.65 34.2227 177.357 35.0156 177.357ZM35.0391 177.773C34.8398 177.773 34.668 177.85 34.5234 178.002C34.3828 178.15 34.2891 178.447 34.2422 178.893C34.1992 179.334 34.1777 179.949 34.1777 180.738C34.1777 181.156 34.2051 181.547 34.2598 181.91C34.3027 182.188 34.3945 182.398 34.5352 182.543C34.6758 182.688 34.8359 182.76 35.0156 182.76C35.1914 182.76 35.3379 182.711 35.4551 182.613C35.6074 182.48 35.709 182.295 35.7598 182.057C35.8379 181.686 35.877 180.936 35.877 179.807C35.877 179.143 35.8398 178.688 35.7656 178.441C35.6914 178.191 35.582 178.01 35.4375 177.896C35.3359 177.814 35.2031 177.773 35.0391 177.773ZM40.6699 177.521V178.23C40.9512 177.926 41.2207 177.705 41.4785 177.568C41.7363 177.428 42.0137 177.357 42.3105 177.357C42.666 177.357 42.9609 177.457 43.1953 177.656C43.4297 177.852 43.5859 178.096 43.6641 178.389C43.7266 178.611 43.7578 179.039 43.7578 179.672V181.805C43.7578 182.227 43.7949 182.49 43.8691 182.596C43.9473 182.697 44.1074 182.762 44.3496 182.789V183H41.5781V182.789C41.7852 182.762 41.9336 182.676 42.0234 182.531C42.0859 182.434 42.1172 182.191 42.1172 181.805V179.367C42.1172 178.918 42.0996 178.635 42.0645 178.518C42.0293 178.4 41.9688 178.311 41.8828 178.248C41.8008 178.182 41.709 178.148 41.6074 178.148C41.2715 178.148 40.959 178.389 40.6699 178.869V181.805C40.6699 182.215 40.707 182.475 40.7812 182.584C40.8594 182.693 41.002 182.762 41.209 182.789V183H38.4375V182.789C38.668 182.766 38.832 182.691 38.9297 182.566C38.9961 182.48 39.0293 182.227 39.0293 181.805V178.711C39.0293 178.297 38.9902 178.039 38.9121 177.938C38.8379 177.836 38.6797 177.77 38.4375 177.738V177.521H40.6699ZM47.8652 183V182.783H48.1289C48.3594 182.783 48.5352 182.748 48.6562 182.678C48.7812 182.604 48.873 182.504 48.9316 182.379C48.9668 182.297 48.9844 182.051 48.9844 181.641V176.414C48.9844 176.008 48.9629 175.754 48.9199 175.652C48.877 175.551 48.7891 175.463 48.6562 175.389C48.5273 175.311 48.3516 175.271 48.1289 175.271H47.8652V175.055H51.4219C52.3711 175.055 53.1348 175.184 53.7129 175.441C54.4199 175.758 54.9551 176.236 55.3184 176.877C55.6855 177.518 55.8691 178.242 55.8691 179.051C55.8691 179.609 55.7793 180.125 55.5996 180.598C55.4199 181.066 55.1875 181.455 54.9023 181.764C54.6172 182.068 54.2871 182.314 53.9121 182.502C53.541 182.686 53.0859 182.828 52.5469 182.93C52.3086 182.977 51.9336 183 51.4219 183H47.8652ZM50.8945 175.506V181.705C50.8945 182.033 50.9102 182.234 50.9414 182.309C50.9727 182.383 51.0254 182.439 51.0996 182.479C51.2051 182.537 51.3574 182.566 51.5566 182.566C52.209 182.566 52.707 182.344 53.0508 181.898C53.5195 181.297 53.7539 180.363 53.7539 179.098C53.7539 178.078 53.5938 177.264 53.2734 176.654C53.0195 176.178 52.6934 175.854 52.2949 175.682C52.0137 175.561 51.5469 175.502 50.8945 175.506ZM58.1016 174.867C58.3555 174.867 58.5703 174.957 58.7461 175.137C58.9219 175.312 59.0098 175.525 59.0098 175.775C59.0098 176.025 58.9199 176.238 58.7402 176.414C58.5645 176.59 58.3516 176.678 58.1016 176.678C57.8516 176.678 57.6387 176.59 57.4629 176.414C57.2871 176.238 57.1992 176.025 57.1992 175.775C57.1992 175.525 57.2871 175.312 57.4629 175.137C57.6387 174.957 57.8516 174.867 58.1016 174.867ZM58.9219 177.521V181.863C58.9219 182.25 58.9668 182.498 59.0566 182.607C59.1465 182.713 59.3223 182.773 59.584 182.789V183H56.625V182.789C56.8672 182.781 57.0469 182.711 57.1641 182.578C57.2422 182.488 57.2812 182.25 57.2812 181.863V178.664C57.2812 178.277 57.2363 178.031 57.1465 177.926C57.0566 177.816 56.8828 177.754 56.625 177.738V177.521H58.9219ZM63.6387 177.586H65.4844V178.23H64.4355C64.627 178.422 64.7598 178.596 64.834 178.752C64.9277 178.963 64.9746 179.184 64.9746 179.414C64.9746 179.805 64.8652 180.145 64.6465 180.434C64.4316 180.719 64.1367 180.943 63.7617 181.107C63.3906 181.268 63.0605 181.348 62.7715 181.348C62.748 181.348 62.5137 181.338 62.0684 181.318C61.8926 181.318 61.7441 181.377 61.623 181.494C61.5059 181.607 61.4473 181.744 61.4473 181.904C61.4473 182.045 61.5 182.16 61.6055 182.25C61.7148 182.34 61.8906 182.385 62.1328 182.385L63.1465 182.373C63.9668 182.373 64.5312 182.463 64.8398 182.643C65.2812 182.893 65.502 183.277 65.502 183.797C65.502 184.129 65.4004 184.43 65.1973 184.699C64.9941 184.973 64.7266 185.174 64.3945 185.303C63.8906 185.494 63.3105 185.59 62.6543 185.59C62.1621 185.59 61.7129 185.541 61.3066 185.443C60.9004 185.35 60.6094 185.217 60.4336 185.045C60.2578 184.877 60.1699 184.699 60.1699 184.512C60.1699 184.332 60.2363 184.17 60.3691 184.025C60.5059 183.885 60.7578 183.766 61.125 183.668C60.6172 183.418 60.3633 183.07 60.3633 182.625C60.3633 182.355 60.4668 182.094 60.6738 181.84C60.8809 181.586 61.209 181.365 61.6582 181.178C61.1348 180.986 60.7559 180.734 60.5215 180.422C60.2871 180.109 60.1699 179.748 60.1699 179.338C60.1699 178.803 60.3887 178.34 60.8262 177.949C61.2637 177.555 61.8262 177.357 62.5137 177.357C62.877 177.357 63.252 177.434 63.6387 177.586ZM62.625 177.721C62.3984 177.721 62.207 177.836 62.0508 178.066C61.8945 178.293 61.8164 178.766 61.8164 179.484C61.8164 180.066 61.8926 180.467 62.0449 180.686C62.2012 180.9 62.3848 181.008 62.5957 181.008C62.8301 181.008 63.0254 180.9 63.1816 180.686C63.3379 180.471 63.416 180.053 63.416 179.432C63.416 178.732 63.3281 178.256 63.1523 178.002C63.0273 177.814 62.8516 177.721 62.625 177.721ZM62.2793 183.809C61.8809 183.809 61.6172 183.842 61.4883 183.908C61.2656 184.029 61.1543 184.193 61.1543 184.4C61.1543 184.6 61.2695 184.779 61.5 184.939C61.7305 185.104 62.1641 185.186 62.8008 185.186C63.3438 185.186 63.7695 185.113 64.0781 184.969C64.3906 184.824 64.5469 184.621 64.5469 184.359C64.5469 184.262 64.5176 184.18 64.459 184.113C64.3535 183.996 64.1934 183.916 63.9785 183.873C63.7676 183.83 63.2012 183.809 62.2793 183.809ZM67.4414 174.867C67.6953 174.867 67.9102 174.957 68.0859 175.137C68.2617 175.312 68.3496 175.525 68.3496 175.775C68.3496 176.025 68.2598 176.238 68.0801 176.414C67.9043 176.59 67.6914 176.678 67.4414 176.678C67.1914 176.678 66.9785 176.59 66.8027 176.414C66.627 176.238 66.5391 176.025 66.5391 175.775C66.5391 175.525 66.627 175.312 66.8027 175.137C66.9785 174.957 67.1914 174.867 67.4414 174.867ZM68.2617 177.521V181.863C68.2617 182.25 68.3066 182.498 68.3965 182.607C68.4863 182.713 68.6621 182.773 68.9238 182.789V183H65.9648V182.789C66.207 182.781 66.3867 182.711 66.5039 182.578C66.582 182.488 66.6211 182.25 66.6211 181.863V178.664C66.6211 178.277 66.5762 178.031 66.4863 177.926C66.3965 177.816 66.2227 177.754 65.9648 177.738V177.521H68.2617ZM71.6367 175.518V177.521H72.9375V178.102H71.6367V181.482C71.6367 181.799 71.6504 182.004 71.6777 182.098C71.709 182.188 71.7617 182.262 71.8359 182.32C71.9102 182.375 71.9785 182.402 72.041 182.402C72.2949 182.402 72.5352 182.209 72.7617 181.822L72.9375 181.951C72.6211 182.701 72.1074 183.076 71.3965 183.076C71.0488 183.076 70.7539 182.98 70.5117 182.789C70.2734 182.594 70.1211 182.377 70.0547 182.139C70.0156 182.006 69.9961 181.646 69.9961 181.061V178.102H69.2812V177.896C69.7734 177.549 70.1914 177.184 70.5352 176.801C70.8828 176.418 71.1855 175.99 71.4434 175.518H71.6367ZM76.4824 182.191C75.8145 182.781 75.2148 183.076 74.6836 183.076C74.3711 183.076 74.1113 182.975 73.9043 182.771C73.6973 182.564 73.5938 182.307 73.5938 181.998C73.5938 181.58 73.7734 181.205 74.1328 180.873C74.4922 180.537 75.2754 180.092 76.4824 179.537V178.986C76.4824 178.572 76.459 178.312 76.4121 178.207C76.3691 178.098 76.2852 178.004 76.1602 177.926C76.0352 177.844 75.8945 177.803 75.7383 177.803C75.4844 177.803 75.2754 177.859 75.1113 177.973C75.0098 178.043 74.959 178.125 74.959 178.219C74.959 178.301 75.0137 178.402 75.123 178.523C75.2715 178.691 75.3457 178.854 75.3457 179.01C75.3457 179.201 75.2734 179.365 75.1289 179.502C74.9883 179.635 74.8027 179.701 74.5723 179.701C74.3262 179.701 74.1191 179.627 73.9512 179.479C73.7871 179.33 73.7051 179.156 73.7051 178.957C73.7051 178.676 73.8164 178.408 74.0391 178.154C74.2617 177.896 74.5723 177.699 74.9707 177.562C75.3691 177.426 75.7832 177.357 76.2129 177.357C76.7324 177.357 77.1426 177.469 77.4434 177.691C77.748 177.91 77.9453 178.148 78.0352 178.406C78.0898 178.57 78.1172 178.947 78.1172 179.537V181.664C78.1172 181.914 78.127 182.072 78.1465 182.139C78.166 182.201 78.1953 182.248 78.2344 182.279C78.2734 182.311 78.3184 182.326 78.3691 182.326C78.4707 182.326 78.5742 182.254 78.6797 182.109L78.8555 182.25C78.6602 182.539 78.457 182.75 78.2461 182.883C78.0391 183.012 77.8027 183.076 77.5371 183.076C77.2246 183.076 76.9805 183.004 76.8047 182.859C76.6289 182.711 76.5215 182.488 76.4824 182.191ZM76.4824 181.764V179.93C76.0098 180.207 75.6582 180.504 75.4277 180.82C75.2754 181.031 75.1992 181.244 75.1992 181.459C75.1992 181.639 75.2637 181.797 75.3926 181.934C75.4902 182.039 75.627 182.092 75.8027 182.092C75.998 182.092 76.2246 181.982 76.4824 181.764ZM81.6035 175.055V181.863C81.6035 182.25 81.6484 182.498 81.7383 182.607C81.8281 182.713 82.0039 182.773 82.2656 182.789V183H79.3066V182.789C79.5488 182.781 79.7285 182.711 79.8457 182.578C79.9238 182.488 79.9629 182.25 79.9629 181.863V176.191C79.9629 175.809 79.918 175.564 79.8281 175.459C79.7383 175.35 79.5645 175.287 79.3066 175.271V175.055H81.6035ZM93.6738 174.873V177.674H93.457C93.1953 176.908 92.8027 176.326 92.2793 175.928C91.7559 175.529 91.1836 175.33 90.5625 175.33C89.9688 175.33 89.4746 175.498 89.0801 175.834C88.6855 176.166 88.4062 176.631 88.2422 177.229C88.0781 177.826 87.9961 178.439 87.9961 179.068C87.9961 179.83 88.0859 180.498 88.2656 181.072C88.4453 181.646 88.7344 182.068 89.1328 182.338C89.5352 182.607 90.0117 182.742 90.5625 182.742C90.7539 182.742 90.9492 182.723 91.1484 182.684C91.3516 182.641 91.5586 182.58 91.7695 182.502V180.85C91.7695 180.537 91.748 180.336 91.7051 180.246C91.6621 180.152 91.5723 180.068 91.4355 179.994C91.3027 179.92 91.1406 179.883 90.9492 179.883H90.7441V179.666H94.6055V179.883C94.3125 179.902 94.1074 179.943 93.9902 180.006C93.877 180.064 93.7891 180.164 93.7266 180.305C93.6914 180.379 93.6738 180.561 93.6738 180.85V182.502C93.166 182.729 92.6367 182.898 92.0859 183.012C91.5391 183.129 90.9707 183.188 90.3809 183.188C89.627 183.188 89 183.086 88.5 182.883C88.0039 182.676 87.5645 182.406 87.1816 182.074C86.8027 181.738 86.5059 181.361 86.291 180.943C86.0176 180.404 85.8809 179.801 85.8809 179.133C85.8809 177.938 86.3008 176.928 87.1406 176.104C87.9805 175.279 89.0371 174.867 90.3105 174.867C90.7051 174.867 91.0605 174.898 91.377 174.961C91.5488 174.992 91.8262 175.082 92.209 175.23C92.5957 175.375 92.8242 175.447 92.8945 175.447C93.0039 175.447 93.1055 175.408 93.1992 175.33C93.293 175.248 93.3789 175.096 93.457 174.873H93.6738ZM98.1621 182.191C97.4941 182.781 96.8945 183.076 96.3633 183.076C96.0508 183.076 95.791 182.975 95.584 182.771C95.377 182.564 95.2734 182.307 95.2734 181.998C95.2734 181.58 95.4531 181.205 95.8125 180.873C96.1719 180.537 96.9551 180.092 98.1621 179.537V178.986C98.1621 178.572 98.1387 178.312 98.0918 178.207C98.0488 178.098 97.9648 178.004 97.8398 177.926C97.7148 177.844 97.5742 177.803 97.418 177.803C97.1641 177.803 96.9551 177.859 96.791 177.973C96.6895 178.043 96.6387 178.125 96.6387 178.219C96.6387 178.301 96.6934 178.402 96.8027 178.523C96.9512 178.691 97.0254 178.854 97.0254 179.01C97.0254 179.201 96.9531 179.365 96.8086 179.502C96.668 179.635 96.4824 179.701 96.252 179.701C96.0059 179.701 95.7988 179.627 95.6309 179.479C95.4668 179.33 95.3848 179.156 95.3848 178.957C95.3848 178.676 95.4961 178.408 95.7188 178.154C95.9414 177.896 96.252 177.699 96.6504 177.562C97.0488 177.426 97.4629 177.357 97.8926 177.357C98.4121 177.357 98.8223 177.469 99.123 177.691C99.4277 177.91 99.625 178.148 99.7148 178.406C99.7695 178.57 99.7969 178.947 99.7969 179.537V181.664C99.7969 181.914 99.8066 182.072 99.8262 182.139C99.8457 182.201 99.875 182.248 99.9141 182.279C99.9531 182.311 99.998 182.326 100.049 182.326C100.15 182.326 100.254 182.254 100.359 182.109L100.535 182.25C100.34 182.539 100.137 182.75 99.9258 182.883C99.7188 183.012 99.4824 183.076 99.2168 183.076C98.9043 183.076 98.6602 183.004 98.4844 182.859C98.3086 182.711 98.2012 182.488 98.1621 182.191ZM98.1621 181.764V179.93C97.6895 180.207 97.3379 180.504 97.1074 180.82C96.9551 181.031 96.8789 181.244 96.8789 181.459C96.8789 181.639 96.9434 181.797 97.0723 181.934C97.1699 182.039 97.3066 182.092 97.4824 182.092C97.6777 182.092 97.9043 181.982 98.1621 181.764ZM103.412 177.521V178.764C103.775 178.197 104.094 177.822 104.367 177.639C104.641 177.451 104.904 177.357 105.158 177.357C105.377 177.357 105.551 177.426 105.68 177.562C105.812 177.695 105.879 177.885 105.879 178.131C105.879 178.393 105.814 178.596 105.686 178.74C105.561 178.885 105.408 178.957 105.229 178.957C105.021 178.957 104.842 178.891 104.689 178.758C104.537 178.625 104.447 178.551 104.42 178.535C104.381 178.512 104.336 178.5 104.285 178.5C104.172 178.5 104.064 178.543 103.963 178.629C103.803 178.762 103.682 178.951 103.6 179.197C103.475 179.576 103.412 179.994 103.412 180.451V181.711L103.418 182.039C103.418 182.262 103.432 182.404 103.459 182.467C103.506 182.572 103.574 182.65 103.664 182.701C103.758 182.748 103.914 182.777 104.133 182.789V183H101.174V182.789C101.412 182.77 101.572 182.705 101.654 182.596C101.74 182.482 101.783 182.188 101.783 181.711V178.682C101.783 178.369 101.768 178.17 101.736 178.084C101.697 177.975 101.641 177.895 101.566 177.844C101.492 177.793 101.361 177.758 101.174 177.738V177.521H103.412ZM111.797 175.055V181.359C111.797 181.785 111.809 182.037 111.832 182.115C111.863 182.244 111.922 182.34 112.008 182.402C112.098 182.465 112.252 182.504 112.471 182.52V182.713L110.156 183.164V182.297C109.879 182.633 109.631 182.861 109.412 182.982C109.197 183.104 108.953 183.164 108.68 183.164C107.98 183.164 107.428 182.852 107.021 182.227C106.693 181.719 106.529 181.096 106.529 180.357C106.529 179.768 106.631 179.24 106.834 178.775C107.037 178.307 107.314 177.953 107.666 177.715C108.021 177.477 108.402 177.357 108.809 177.357C109.07 177.357 109.303 177.408 109.506 177.51C109.709 177.611 109.926 177.789 110.156 178.043V176.391C110.156 175.973 110.139 175.721 110.104 175.635C110.057 175.521 109.986 175.438 109.893 175.383C109.799 175.328 109.623 175.301 109.365 175.301V175.055H111.797ZM110.156 178.77C109.867 178.215 109.514 177.938 109.096 177.938C108.951 177.938 108.832 177.977 108.738 178.055C108.594 178.176 108.475 178.389 108.381 178.693C108.291 178.998 108.246 179.465 108.246 180.094C108.246 180.785 108.297 181.297 108.398 181.629C108.5 181.961 108.639 182.201 108.814 182.35C108.904 182.424 109.027 182.461 109.184 182.461C109.527 182.461 109.852 182.191 110.156 181.652V178.77ZM117.791 180.064H114.785C114.82 180.791 115.014 181.365 115.365 181.787C115.635 182.111 115.959 182.273 116.338 182.273C116.572 182.273 116.785 182.209 116.977 182.08C117.168 181.947 117.373 181.711 117.592 181.371L117.791 181.5C117.494 182.105 117.166 182.535 116.807 182.789C116.447 183.039 116.031 183.164 115.559 183.164C114.746 183.164 114.131 182.852 113.713 182.227C113.377 181.723 113.209 181.098 113.209 180.352C113.209 179.438 113.455 178.711 113.947 178.172C114.443 177.629 115.023 177.357 115.688 177.357C116.242 177.357 116.723 177.586 117.129 178.043C117.539 178.496 117.76 179.17 117.791 180.064ZM116.35 179.672C116.35 179.043 116.314 178.611 116.244 178.377C116.178 178.143 116.072 177.965 115.928 177.844C115.846 177.773 115.736 177.738 115.6 177.738C115.396 177.738 115.23 177.838 115.102 178.037C114.871 178.385 114.756 178.861 114.756 179.467V179.672H116.35ZM120.721 177.521V178.23C121.002 177.926 121.271 177.705 121.529 177.568C121.787 177.428 122.064 177.357 122.361 177.357C122.717 177.357 123.012 177.457 123.246 177.656C123.48 177.852 123.637 178.096 123.715 178.389C123.777 178.611 123.809 179.039 123.809 179.672V181.805C123.809 182.227 123.846 182.49 123.92 182.596C123.998 182.697 124.158 182.762 124.4 182.789V183H121.629V182.789C121.836 182.762 121.984 182.676 122.074 182.531C122.137 182.434 122.168 182.191 122.168 181.805V179.367C122.168 178.918 122.15 178.635 122.115 178.518C122.08 178.4 122.02 178.311 121.934 178.248C121.852 178.182 121.76 178.148 121.658 178.148C121.322 178.148 121.01 178.389 120.721 178.869V181.805C120.721 182.215 120.758 182.475 120.832 182.584C120.91 182.693 121.053 182.762 121.26 182.789V183H118.488V182.789C118.719 182.766 118.883 182.691 118.98 182.566C119.047 182.48 119.08 182.227 119.08 181.805V178.711C119.08 178.297 119.041 178.039 118.963 177.938C118.889 177.836 118.73 177.77 118.488 177.738V177.521H120.721ZM6.9082 191.58L8.33789 191.521L7.26562 195.201C7.14453 195.607 7.08398 195.912 7.08398 196.115C7.08398 196.24 7.12891 196.35 7.21875 196.443C7.3125 196.533 7.42578 196.578 7.55859 196.578C7.82812 196.578 8.17578 196.424 8.60156 196.115C9.03125 195.803 9.38477 195.359 9.66211 194.785C9.94336 194.207 10.084 193.592 10.084 192.939C10.084 191.861 9.73633 190.977 9.04102 190.285C8.34961 189.59 7.44727 189.242 6.33398 189.242C5.37305 189.242 4.5 189.469 3.71484 189.922C2.92969 190.371 2.30664 191.025 1.8457 191.885C1.38477 192.744 1.1543 193.666 1.1543 194.65C1.1543 196.002 1.58398 197.107 2.44336 197.967C3.30664 198.83 4.4043 199.262 5.73633 199.262C6.83398 199.262 7.81836 198.967 8.68945 198.377C9.56055 197.787 10.1777 197.006 10.541 196.033H10.8984C10.4297 197.182 9.74609 198.061 8.84766 198.67C7.95312 199.283 6.91211 199.59 5.72461 199.59C4.2207 199.59 2.98047 199.104 2.00391 198.131C1.02734 197.162 0.539062 195.934 0.539062 194.445C0.539062 193.422 0.78125 192.475 1.26562 191.604C1.75 190.729 2.42969 190.055 3.30469 189.582C4.17969 189.109 5.14844 188.873 6.21094 188.873C7.07422 188.873 7.82812 189.047 8.47266 189.395C9.12109 189.738 9.60742 190.223 9.93164 190.848C10.2559 191.473 10.418 192.133 10.418 192.828C10.418 193.637 10.2422 194.375 9.89062 195.043C9.54297 195.711 9.10742 196.205 8.58398 196.525C8.06445 196.842 7.50391 197 6.90234 197C6.51562 197 6.2207 196.904 6.01758 196.713C5.81445 196.521 5.71289 196.275 5.71289 195.975C5.71289 195.764 5.75977 195.488 5.85352 195.148C5.5293 195.688 5.27734 196.061 5.09766 196.268C4.85156 196.545 4.60742 196.748 4.36523 196.877C4.20898 196.959 4.03125 197 3.83203 197C3.55469 197 3.32031 196.891 3.12891 196.672C2.94141 196.449 2.84766 196.125 2.84766 195.699C2.84766 195.262 2.91016 194.834 3.03516 194.416C3.16406 193.994 3.33789 193.6 3.55664 193.232C3.77539 192.861 4.02734 192.529 4.3125 192.236C4.60156 191.943 4.92578 191.701 5.28516 191.51C5.46875 191.408 5.66602 191.357 5.87695 191.357C6.0957 191.357 6.27539 191.426 6.41602 191.562C6.56055 191.699 6.6582 191.938 6.70898 192.277L6.9082 191.58ZM6.02344 191.779C5.875 191.779 5.72852 191.861 5.58398 192.025C5.38867 192.248 5.17969 192.619 4.95703 193.139C4.55859 194.072 4.35938 194.822 4.35938 195.389C4.35938 195.561 4.39453 195.693 4.46484 195.787C4.53906 195.881 4.61914 195.928 4.70508 195.928C4.7793 195.928 4.88672 195.873 5.02734 195.764C5.22656 195.611 5.43945 195.354 5.66602 194.99C5.89258 194.627 6.07812 194.225 6.22266 193.783C6.36719 193.338 6.43945 192.928 6.43945 192.553C6.43945 192.283 6.38867 192.078 6.28711 191.938C6.21289 191.832 6.125 191.779 6.02344 191.779ZM13.8105 189.055V192.225C14.1113 191.908 14.3867 191.686 14.6367 191.557C14.8867 191.424 15.1465 191.357 15.416 191.357C15.7598 191.357 16.0527 191.455 16.2949 191.65C16.541 191.846 16.7031 192.076 16.7812 192.342C16.8633 192.604 16.9043 193.047 16.9043 193.672V195.811C16.9043 196.229 16.9434 196.49 17.0215 196.596C17.0996 196.697 17.2578 196.762 17.4961 196.789V197H14.7188V196.789C14.9141 196.762 15.0605 196.684 15.1582 196.555C15.2285 196.453 15.2637 196.205 15.2637 195.811V193.367C15.2637 192.914 15.2461 192.631 15.2109 192.518C15.1758 192.4 15.1152 192.311 15.0293 192.248C14.9473 192.182 14.8535 192.148 14.748 192.148C14.5918 192.148 14.4395 192.203 14.291 192.312C14.1426 192.418 13.9824 192.605 13.8105 192.875V195.811C13.8105 196.201 13.8398 196.445 13.8984 196.543C13.9727 196.676 14.125 196.758 14.3555 196.789V197H11.5781V196.789C11.8086 196.766 11.9727 196.691 12.0703 196.566C12.1367 196.48 12.1699 196.229 12.1699 195.811V190.244C12.1699 189.83 12.1309 189.572 12.0527 189.471C11.9785 189.369 11.8203 189.303 11.5781 189.271V189.055H13.8105ZM21.2754 196.191C20.6074 196.781 20.0078 197.076 19.4766 197.076C19.1641 197.076 18.9043 196.975 18.6973 196.771C18.4902 196.564 18.3867 196.307 18.3867 195.998C18.3867 195.58 18.5664 195.205 18.9258 194.873C19.2852 194.537 20.0684 194.092 21.2754 193.537V192.986C21.2754 192.572 21.252 192.312 21.2051 192.207C21.1621 192.098 21.0781 192.004 20.9531 191.926C20.8281 191.844 20.6875 191.803 20.5312 191.803C20.2773 191.803 20.0684 191.859 19.9043 191.973C19.8027 192.043 19.752 192.125 19.752 192.219C19.752 192.301 19.8066 192.402 19.916 192.523C20.0645 192.691 20.1387 192.854 20.1387 193.01C20.1387 193.201 20.0664 193.365 19.9219 193.502C19.7812 193.635 19.5957 193.701 19.3652 193.701C19.1191 193.701 18.9121 193.627 18.7441 193.479C18.5801 193.33 18.498 193.156 18.498 192.957C18.498 192.676 18.6094 192.408 18.832 192.154C19.0547 191.896 19.3652 191.699 19.7637 191.562C20.1621 191.426 20.5762 191.357 21.0059 191.357C21.5254 191.357 21.9355 191.469 22.2363 191.691C22.541 191.91 22.7383 192.148 22.8281 192.406C22.8828 192.57 22.9102 192.947 22.9102 193.537V195.664C22.9102 195.914 22.9199 196.072 22.9395 196.139C22.959 196.201 22.9883 196.248 23.0273 196.279C23.0664 196.311 23.1113 196.326 23.1621 196.326C23.2637 196.326 23.3672 196.254 23.4727 196.109L23.6484 196.25C23.4531 196.539 23.25 196.75 23.0391 196.883C22.832 197.012 22.5957 197.076 22.3301 197.076C22.0176 197.076 21.7734 197.004 21.5977 196.859C21.4219 196.711 21.3145 196.488 21.2754 196.191ZM21.2754 195.764V193.93C20.8027 194.207 20.4512 194.504 20.2207 194.82C20.0684 195.031 19.9922 195.244 19.9922 195.459C19.9922 195.639 20.0566 195.797 20.1855 195.934C20.2832 196.039 20.4199 196.092 20.5957 196.092C20.791 196.092 21.0176 195.982 21.2754 195.764ZM28.8926 194.064H25.8867C25.9219 194.791 26.1152 195.365 26.4668 195.787C26.7363 196.111 27.0605 196.273 27.4395 196.273C27.6738 196.273 27.8867 196.209 28.0781 196.08C28.2695 195.947 28.4746 195.711 28.6934 195.371L28.8926 195.5C28.5957 196.105 28.2676 196.535 27.9082 196.789C27.5488 197.039 27.1328 197.164 26.6602 197.164C25.8477 197.164 25.2324 196.852 24.8145 196.227C24.4785 195.723 24.3105 195.098 24.3105 194.352C24.3105 193.438 24.5566 192.711 25.0488 192.172C25.5449 191.629 26.125 191.357 26.7891 191.357C27.3438 191.357 27.8242 191.586 28.2305 192.043C28.6406 192.496 28.8613 193.17 28.8926 194.064ZM27.4512 193.672C27.4512 193.043 27.416 192.611 27.3457 192.377C27.2793 192.143 27.1738 191.965 27.0293 191.844C26.9473 191.773 26.8379 191.738 26.7012 191.738C26.498 191.738 26.332 191.838 26.2031 192.037C25.9727 192.385 25.8574 192.861 25.8574 193.467V193.672H27.4512ZM31.8574 191.521V192.764C32.2207 192.197 32.5391 191.822 32.8125 191.639C33.0859 191.451 33.3496 191.357 33.6035 191.357C33.8223 191.357 33.9961 191.426 34.125 191.562C34.2578 191.695 34.3242 191.885 34.3242 192.131C34.3242 192.393 34.2598 192.596 34.1309 192.74C34.0059 192.885 33.8535 192.957 33.6738 192.957C33.4668 192.957 33.2871 192.891 33.1348 192.758C32.9824 192.625 32.8926 192.551 32.8652 192.535C32.8262 192.512 32.7812 192.5 32.7305 192.5C32.6172 192.5 32.5098 192.543 32.4082 192.629C32.248 192.762 32.127 192.951 32.0449 193.197C31.9199 193.576 31.8574 193.994 31.8574 194.451V195.711L31.8633 196.039C31.8633 196.262 31.877 196.404 31.9043 196.467C31.9512 196.572 32.0195 196.65 32.1094 196.701C32.2031 196.748 32.3594 196.777 32.5781 196.789V197H29.6191V196.789C29.8574 196.77 30.0176 196.705 30.0996 196.596C30.1855 196.482 30.2285 196.188 30.2285 195.711V192.682C30.2285 192.369 30.2129 192.17 30.1816 192.084C30.1426 191.975 30.0859 191.895 30.0117 191.844C29.9375 191.793 29.8066 191.758 29.6191 191.738V191.521H31.8574ZM37.9395 196.191C37.2715 196.781 36.6719 197.076 36.1406 197.076C35.8281 197.076 35.5684 196.975 35.3613 196.771C35.1543 196.564 35.0508 196.307 35.0508 195.998C35.0508 195.58 35.2305 195.205 35.5898 194.873C35.9492 194.537 36.7324 194.092 37.9395 193.537V192.986C37.9395 192.572 37.916 192.312 37.8691 192.207C37.8262 192.098 37.7422 192.004 37.6172 191.926C37.4922 191.844 37.3516 191.803 37.1953 191.803C36.9414 191.803 36.7324 191.859 36.5684 191.973C36.4668 192.043 36.416 192.125 36.416 192.219C36.416 192.301 36.4707 192.402 36.5801 192.523C36.7285 192.691 36.8027 192.854 36.8027 193.01C36.8027 193.201 36.7305 193.365 36.5859 193.502C36.4453 193.635 36.2598 193.701 36.0293 193.701C35.7832 193.701 35.5762 193.627 35.4082 193.479C35.2441 193.33 35.1621 193.156 35.1621 192.957C35.1621 192.676 35.2734 192.408 35.4961 192.154C35.7188 191.896 36.0293 191.699 36.4277 191.562C36.8262 191.426 37.2402 191.357 37.6699 191.357C38.1895 191.357 38.5996 191.469 38.9004 191.691C39.2051 191.91 39.4023 192.148 39.4922 192.406C39.5469 192.57 39.5742 192.947 39.5742 193.537V195.664C39.5742 195.914 39.584 196.072 39.6035 196.139C39.623 196.201 39.6523 196.248 39.6914 196.279C39.7305 196.311 39.7754 196.326 39.8262 196.326C39.9277 196.326 40.0312 196.254 40.1367 196.109L40.3125 196.25C40.1172 196.539 39.9141 196.75 39.7031 196.883C39.4961 197.012 39.2598 197.076 38.9941 197.076C38.6816 197.076 38.4375 197.004 38.2617 196.859C38.0859 196.711 37.9785 196.488 37.9395 196.191ZM37.9395 195.764V193.93C37.4668 194.207 37.1152 194.504 36.8848 194.82C36.7324 195.031 36.6562 195.244 36.6562 195.459C36.6562 195.639 36.7207 195.797 36.8496 195.934C36.9473 196.039 37.084 196.092 37.2598 196.092C37.4551 196.092 37.6816 195.982 37.9395 195.764ZM43.1895 191.521V192.242C43.4902 191.914 43.7676 191.686 44.0215 191.557C44.2793 191.424 44.5605 191.357 44.8652 191.357C45.2168 191.357 45.5117 191.439 45.75 191.604C45.9883 191.768 46.1719 192.018 46.3008 192.354C46.6133 192.002 46.9121 191.748 47.1973 191.592C47.4863 191.436 47.7871 191.357 48.0996 191.357C48.4785 191.357 48.7793 191.445 49.002 191.621C49.2285 191.793 49.3848 192.014 49.4707 192.283C49.5605 192.549 49.6055 192.975 49.6055 193.561V195.805C49.6055 196.227 49.6426 196.488 49.7168 196.59C49.7949 196.691 49.9551 196.758 50.1973 196.789V197H47.3672V196.789C47.5898 196.77 47.7539 196.684 47.8594 196.531C47.9297 196.426 47.9648 196.184 47.9648 195.805V193.449C47.9648 192.961 47.9453 192.65 47.9062 192.518C47.8672 192.385 47.8047 192.287 47.7188 192.225C47.6367 192.158 47.5391 192.125 47.4258 192.125C47.2578 192.125 47.0879 192.188 46.916 192.312C46.7441 192.434 46.5703 192.617 46.3945 192.863V195.805C46.3945 196.199 46.4277 196.447 46.4941 196.549C46.584 196.693 46.7559 196.773 47.0098 196.789V197H44.1738V196.789C44.3262 196.781 44.4453 196.744 44.5312 196.678C44.6211 196.607 44.6797 196.525 44.707 196.432C44.7383 196.334 44.7539 196.125 44.7539 195.805V193.449C44.7539 192.953 44.7344 192.643 44.6953 192.518C44.6562 192.393 44.5898 192.295 44.4961 192.225C44.4062 192.154 44.3086 192.119 44.2031 192.119C44.0469 192.119 43.9043 192.16 43.7754 192.242C43.5918 192.363 43.3965 192.57 43.1895 192.863V195.805C43.1895 196.191 43.2266 196.447 43.3008 196.572C43.3789 196.693 43.5391 196.766 43.7812 196.789V197H40.957V196.789C41.1875 196.766 41.3516 196.691 41.4492 196.566C41.5156 196.48 41.5488 196.227 41.5488 195.805V192.711C41.5488 192.297 41.5098 192.039 41.4316 191.938C41.3574 191.836 41.1992 191.77 40.957 191.738V191.521H43.1895ZM53.1387 189.055V194.281L54.4102 193.033C54.6719 192.779 54.834 192.596 54.8965 192.482C54.9629 192.369 54.9961 192.26 54.9961 192.154C54.9961 192.049 54.9531 191.961 54.8672 191.891C54.7812 191.82 54.6133 191.77 54.3633 191.738V191.521H56.8184V191.738C56.584 191.75 56.3789 191.807 56.2031 191.908C56.0273 192.006 55.6836 192.305 55.1719 192.805L54.5742 193.391L55.8633 195.277C56.3828 196.043 56.6914 196.473 56.7891 196.566C56.9219 196.699 57.0898 196.773 57.293 196.789V197H54.4629V196.789C54.5879 196.789 54.6777 196.766 54.7324 196.719C54.791 196.672 54.8203 196.621 54.8203 196.566C54.8203 196.477 54.7383 196.311 54.5742 196.068L53.4902 194.48L53.1387 194.826V195.811C53.1387 196.229 53.1777 196.49 53.2559 196.596C53.334 196.697 53.4941 196.762 53.7363 196.789V197H50.9062V196.789C51.1367 196.766 51.3008 196.691 51.3984 196.566C51.4648 196.48 51.498 196.229 51.498 195.811V190.244C51.498 189.83 51.459 189.572 51.3809 189.471C51.3066 189.369 51.1484 189.303 50.9062 189.271V189.055H53.1387ZM62.2324 194.064H59.2266C59.2617 194.791 59.4551 195.365 59.8066 195.787C60.0762 196.111 60.4004 196.273 60.7793 196.273C61.0137 196.273 61.2266 196.209 61.418 196.08C61.6094 195.947 61.8145 195.711 62.0332 195.371L62.2324 195.5C61.9355 196.105 61.6074 196.535 61.248 196.789C60.8887 197.039 60.4727 197.164 60 197.164C59.1875 197.164 58.5723 196.852 58.1543 196.227C57.8184 195.723 57.6504 195.098 57.6504 194.352C57.6504 193.438 57.8965 192.711 58.3887 192.172C58.8848 191.629 59.4648 191.357 60.1289 191.357C60.6836 191.357 61.1641 191.586 61.5703 192.043C61.9805 192.496 62.2012 193.17 62.2324 194.064ZM60.791 193.672C60.791 193.043 60.7559 192.611 60.6855 192.377C60.6191 192.143 60.5137 191.965 60.3691 191.844C60.2871 191.773 60.1777 191.738 60.041 191.738C59.8379 191.738 59.6719 191.838 59.543 192.037C59.3125 192.385 59.1973 192.861 59.1973 193.467V193.672H60.791ZM67.5645 194.064H64.5586C64.5938 194.791 64.7871 195.365 65.1387 195.787C65.4082 196.111 65.7324 196.273 66.1113 196.273C66.3457 196.273 66.5586 196.209 66.75 196.08C66.9414 195.947 67.1465 195.711 67.3652 195.371L67.5645 195.5C67.2676 196.105 66.9395 196.535 66.5801 196.789C66.2207 197.039 65.8047 197.164 65.332 197.164C64.5195 197.164 63.9043 196.852 63.4863 196.227C63.1504 195.723 62.9824 195.098 62.9824 194.352C62.9824 193.438 63.2285 192.711 63.7207 192.172C64.2168 191.629 64.7969 191.357 65.4609 191.357C66.0156 191.357 66.4961 191.586 66.9023 192.043C67.3125 192.496 67.5332 193.17 67.5645 194.064ZM66.123 193.672C66.123 193.043 66.0879 192.611 66.0176 192.377C65.9512 192.143 65.8457 191.965 65.7012 191.844C65.6191 191.773 65.5098 191.738 65.373 191.738C65.1699 191.738 65.0039 191.838 64.875 192.037C64.6445 192.385 64.5293 192.861 64.5293 193.467V193.672H66.123ZM70.5293 191.521V192.242C70.8301 191.914 71.1074 191.686 71.3613 191.557C71.6191 191.424 71.9004 191.357 72.2051 191.357C72.5566 191.357 72.8516 191.439 73.0898 191.604C73.3281 191.768 73.5117 192.018 73.6406 192.354C73.9531 192.002 74.252 191.748 74.5371 191.592C74.8262 191.436 75.127 191.357 75.4395 191.357C75.8184 191.357 76.1191 191.445 76.3418 191.621C76.5684 191.793 76.7246 192.014 76.8105 192.283C76.9004 192.549 76.9453 192.975 76.9453 193.561V195.805C76.9453 196.227 76.9824 196.488 77.0566 196.59C77.1348 196.691 77.2949 196.758 77.5371 196.789V197H74.707V196.789C74.9297 196.77 75.0938 196.684 75.1992 196.531C75.2695 196.426 75.3047 196.184 75.3047 195.805V193.449C75.3047 192.961 75.2852 192.65 75.2461 192.518C75.207 192.385 75.1445 192.287 75.0586 192.225C74.9766 192.158 74.8789 192.125 74.7656 192.125C74.5977 192.125 74.4277 192.188 74.2559 192.312C74.084 192.434 73.9102 192.617 73.7344 192.863V195.805C73.7344 196.199 73.7676 196.447 73.834 196.549C73.9238 196.693 74.0957 196.773 74.3496 196.789V197H71.5137V196.789C71.666 196.781 71.7852 196.744 71.8711 196.678C71.9609 196.607 72.0195 196.525 72.0469 196.432C72.0781 196.334 72.0938 196.125 72.0938 195.805V193.449C72.0938 192.953 72.0742 192.643 72.0352 192.518C71.9961 192.393 71.9297 192.295 71.8359 192.225C71.7461 192.154 71.6484 192.119 71.543 192.119C71.3867 192.119 71.2441 192.16 71.1152 192.242C70.9316 192.363 70.7363 192.57 70.5293 192.863V195.805C70.5293 196.191 70.5664 196.447 70.6406 196.572C70.7188 196.693 70.8789 196.766 71.1211 196.789V197H68.2969V196.789C68.5273 196.766 68.6914 196.691 68.7891 196.566C68.8555 196.48 68.8887 196.227 68.8887 195.805V192.711C68.8887 192.297 68.8496 192.039 68.7715 191.938C68.6973 191.836 68.5391 191.77 68.2969 191.738V191.521H70.5293Z" fill="#947061"/>
</svg>
